<?xml version="1.0" encoding="utf-8"?>
<!-- Generator: Adobe Illustrator 25.4.1, SVG Export Plug-In . SVG Version: 6.00 Build 0)  -->
<svg version="1.1" id="Layer_1" xmlns="http://www.w3.org/2000/svg" xmlns:xlink="http://www.w3.org/1999/xlink" x="0px" y="0px"
	 viewBox="0 0 1000 1000" style="enable-background:new 0 0 1000 1000;" xml:space="preserve">
<style type="text/css">
	.st0{fill:#231F20;}
	.st1{fill:#FF5F00;}
	.st2{fill:#EB001B;}
	.st3{fill:#F79E1B;}
	.st4{fill:#00579F;}
	.st5{fill:#FAA61A;}
	.st6{fill:#016FD0;}
</style>
<g id="Layer_2_00000134226764698001485670000015717655533314407301_">
	<g id="Layer_1-2">
		<path class="st0" d="M117.6,502.2v-26.3c0.4-8.8-5.7-16.3-14.5-16.7h-2.2c-5.7-0.4-11.4,2.6-14.9,7.5c-3.1-4.8-8.3-7.9-14.1-7.5
			c-4.8-0.4-9.7,2.2-12.3,6.1V460h-9.2v42.2h9.2v-23.3c-0.9-5.3,3.1-10.5,8.3-11h1.8c6.1,0,9.2,3.9,9.2,11v23.3h9.2v-23.3
			c-0.9-5.3,3.1-10.5,8.3-11h1.8c6.1,0,9.2,3.9,9.2,11v23.3H117.6z M254.2,460h-14.9v-12.7H230V460h-8.3v8.3h8.3v19.3
			c0,9.7,3.9,15.4,14.5,15.4c3.9,0,7.9-1.3,11.4-3.1l-2.6-7.9c-2.4,1.3-5.1,2.1-7.9,2.2c-4.4,0-6.2-2.6-6.2-7v-19.3h14.9L254.2,460z
			 M332.4,459.1c-4.4,0-8.8,2.2-11,6.1V460h-9.2v42.2h9.2v-23.7c0-7,3.1-11,8.8-11c1.9,0.1,3.8,0.4,5.7,0.9l2.6-8.8
			C336.3,459.1,334.1,458.7,332.4,459.1L332.4,459.1z M214.2,463.5c-5.2-3-11.2-4.5-17.2-4.4c-10.5,0-17.6,5.3-17.6,13.6
			c0,7,5.3,11,14.5,12.3l4.4,0.4c4.8,0.9,7.5,2.2,7.5,4.4c0,3.1-3.5,5.3-9.7,5.3c-4.8,0-10.1-1.3-14.1-4.4l-4.4,7
			c5.3,3.5,11.9,5.7,18,5.3c12.3,0,19.3-5.7,19.3-13.6s-5.7-11.4-14.5-12.7l-4.4-0.4c-4-0.4-7-1.3-7-3.9c0-2.6,3.1-4.8,7.9-4.8
			c4.6,0,9.2,1.2,13.2,3.5L214.2,463.5z M458.9,459.1c-4.4,0-8.8,2.2-11,6.1V460h-9.3v42.2h9.2v-23.7c0-7,3.1-11,8.8-11
			c1.9,0.1,3.8,0.4,5.7,0.9l2.6-8.8C463,459,460.9,458.8,458.9,459.1L458.9,459.1z M341.2,481.1c-0.5,11.6,8.6,21.5,20.2,22h2.2
			c5.4,0.4,10.8-1.3,14.9-4.8l-4.4-7.5c-3.3,2.2-7.1,3.6-11,3.9c-7.5-0.4-12.7-7-12.3-14.5c0.4-6.6,5.7-11.8,12.3-12.3
			c4,0,7.9,1.4,11,3.9l4.4-7.5c-4.2-3.5-9.5-5.2-14.9-4.8c-11.9-0.9-21.5,8.3-22.4,19.8L341.2,481.1L341.2,481.1z M426.8,481.1V460
			h-9.2v5.3c-3.2-4-8.1-6.3-13.2-6.1c-12.1-0.2-22.1,9.4-22.3,21.6c-0.2,12.1,9.4,22.1,21.6,22.3c0.3,0,0.5,0,0.8,0
			c5.1,0.1,10-2.2,13.2-6.2v5.3h9.2V481.1z M392.9,481.1c0.6-7,6.7-12.3,13.7-11.7c6.9,0.6,12.1,6.5,11.7,13.5
			c-0.4,6.7-6,11.9-12.7,11.9c-7,0-12.7-5.3-12.7-12.3L392.9,481.1z M282.7,459.1c-11.9,0-21.5,9.6-21.5,21.4c0,0.3,0,0.6,0,1
			c0.4,12.3,10.1,22,22.4,21.5l0,0c6.4,0.3,12.6-1.7,17.6-5.7l-4.4-6.6c-3.5,2.7-7.8,4.3-12.3,4.4c-6.2,0.4-11.7-4-12.7-10.1h31.2
			v-3.5C302.9,467.9,294.6,459.1,282.7,459.1L282.7,459.1z M282.7,467c5.7,0,10.5,4.4,10.5,10.1h-22
			C271.7,471.4,276.6,467,282.7,467z M511.5,481.1v-37.8h-8.8v22c-3.2-4-8.1-6.3-13.2-6.1c-12.1-0.2-22.1,9.4-22.3,21.6
			c-0.2,12.1,9.4,22.1,21.6,22.3c0.3,0,0.5,0,0.8,0c5.1,0.1,10-2.2,13.2-6.2v5.3h8.8L511.5,481.1z M477.7,481.1
			c0.5-7,6.6-12.3,13.6-11.9c7,0.5,12.3,6.6,11.9,13.6l0,0c-0.4,6.7-6,11.9-12.7,11.9c-7,0-12.7-5.3-12.7-12.3L477.7,481.1z
			 M169.4,481.1V460h-9.2v5.3c-3.2-4-8.1-6.3-13.2-6.1c-12.1,0.2-21.8,10.2-21.6,22.3c0.2,11.8,9.7,21.4,21.6,21.6
			c5.1,0.1,10-2.2,13.2-6.2v5.3h9.2L169.4,481.1z M135.1,481.1c0.4-7,6.5-12.4,13.5-12s12.4,6.5,12,13.5c0,0.1,0,0.2,0,0.3
			c-0.4,6.7-6,11.9-12.7,11.9c-7,0-12.7-5.3-12.7-12.3L135.1,481.1L135.1,481.1z"/>
		<g id="_Group_">
			<rect x="211.6" y="140.3" class="st1" width="138.3" height="248.6"/>
			<path id="_Path_" class="st2" d="M220.4,264.5c0.1-48.5,22.4-94.3,60.6-124.3c-68.5-54-168.2-42.2-221.8,26.8S17,335.3,86,388.8
				c57.3,45.2,138.2,45.2,195.4,0C242.3,358.5,219.9,312.9,220.4,264.5z"/>
			<path class="st3" d="M536.1,264.5c0.1,87.2-70.6,158-157.8,158.1c-35.5,0-69.9-11.9-97.8-33.8c68.5-54,80.4-153.7,26.8-222.2
				c-7.8-10-16.8-19-26.8-26.8c68.5-54,168.2-42.1,222.2,26.8C524.4,194.7,536.2,229.1,536.1,264.5L536.1,264.5z"/>
		</g>
	</g>
</g>
<g>
	<polygon class="st4" points="104.1,639.1 175.6,909.1 256.8,909.1 378.7,610.9 296.8,610.9 220.8,815.3 186,636.5 	"/>
	<path class="st5" d="M26.8,610.9l-1.3,5.9c0,0,128.4,19,187.4,156.6L186,637.1c-2.6-15.1-16.4-25.6-31.5-25.6H26.8L26.8,610.9z"/>
	<polygon class="st4" points="486.8,610.9 410.1,610.9 361,909.7 437.7,909.7 	"/>
	<path class="st4" d="M916,610.9h-64.9c-15.1,0.1-28.7,9.1-34.7,22.9L701.1,909.1h81.2l16.4-44.6h98.9l9.2,44.6h71.4L916,610.9z
		 M821,803.5l40.6-112l23.6,112.1L821,803.5z"/>
	<path class="st4" d="M718.1,618.1l-10.5,64.2c0,0-59-29.5-99.6-5.9c0,0-26.2,19.7,7.2,38.7c33.4,19.7,93.7,40,91.7,97.6
		C704.9,870.4,657.2,913,574,913c0,0-55-0.7-87.8-15.7l10.5-66.8c0,0,46.5,26.2,92.4,19.7s36.1-35.4,36.1-35.4s-3.3-11.8-22.9-21.6
		c-19.7-10.5-70.8-31.5-81.3-70.1c-9.8-38.7,11.2-74.7,30.2-87.8C570.7,623.3,613.3,587.3,718.1,618.1z"/>
</g>
<g>
	<g>
		<path class="st6" d="M597.2,110.9v166.6L612,243h25.6l8.4,19.4V243h31.9l5,14l4.9-14h143v7c0,0,7.5-7,19.9-7l46.4,0.2l8.3,19.1
			V243H932l7.3,11v-11h26.9V305h-26.9l-7-11v11h-39.2l-3.9-9.8h-10.5l-3.9,9.8h-26.6c-10.6,0-17.4-6.9-17.4-6.9v6.9h-40l-8-9.8v9.8
			H633.8l-3.9-9.8h-10.5l-3.9,9.8h-18.3v201.2h395.3V382.1c0,0-6.2,4.2-13.5,4.3h-132l-8-9.8v9.8h-26v-16.7c0,0-3.5,2.3-11.3,2.3
			h-8.9v14.4h-39.4l-7-9.4l-7.1,9.4h-65.3v-62.1h65.7l7,9.2l7.3-9.2h238.5V110.9H597.2z"/>
	</g>
	<path id="path3046" class="st6" d="M617.2,250.6l-20,46.4h13l3.7-9.3h21.4l3.7,9.3h13.3l-20-46.5L617.2,250.6L617.2,250.6z
		 M624.6,261.4l6.5,16.2h-13.1L624.6,261.4z"/>
	<path id="path3048" class="st6" d="M653.7,297.1v-46.4l18.5,0.1l10.8,30l10.5-30h18.4v46.5h-11.6v-34.3l-12.3,34.3h-10.2
		l-12.4-34.3v34.3L653.7,297.1L653.7,297.1z"/>
	<path id="path3050" class="st6" d="M719.7,297.1v-46.4h37.9V261h-26.2v7.9h25.6v9.8h-25.6v8.3h26.2v10.1H719.7z"/>
	<path id="path3052" class="st6" d="M764.4,250.6v46.4H776v-16.5h4.9l13.9,16.5H809l-15.3-17.1c6.3-0.5,12.7-5.9,12.7-14.3
		c0-9.8-7.7-15.1-16.2-15.1H764.4L764.4,250.6z M776,261h13.3c3.2,0,5.5,2.5,5.5,4.9c0,3.1-3,4.9-5.3,4.9H776V261L776,261z"/>
	<path id="path3054" class="st6" d="M823.1,297.1h-11.9v-46.4h11.9V297.1z"/>
	<path id="path3056" class="st6" d="M851.2,297.1h-2.5c-12.4,0-19.9-9.7-19.9-23c0-13.6,7.4-23.4,23.1-23.4h12.8v11h-13.3
		c-6.4,0-10.8,4.9-10.8,12.5c0,9,5.1,12.8,12.5,12.8h3L851.2,297.1z"/>
	<path id="path3058" class="st6" d="M876.5,250.6l-20,46.4h13l3.7-9.3h21.5l3.7,9.3h13.3l-20-46.5L876.5,250.6L876.5,250.6z
		 M883.9,261.4l6.5,16.2h-13.1L883.9,261.4L883.9,261.4z"/>
	<path id="path3060" class="st6" d="M913,297.1v-46.4h14.8l18.9,29.2v-29.2h11.6v46.5h-14.3l-19.3-30v30L913,297.1L913,297.1z"/>
	<path id="path3062" class="st6" d="M681.9,378.4v-46.5h37.9v10.4h-26.2v7.9h25.5v9.8h-25.6v8.3h26.2v10.1L681.9,378.4z"/>
	<path id="path3064" class="st6" d="M867.6,378.4v-46.5h37.9v10.4h-26.2v7.9h25.4v9.8h-25.4v8.3h26.2v10.1L867.6,378.4z"/>
	<path id="path3066" class="st6" d="M721.2,378.4l18.5-23l-18.9-23.5h14.6l11.3,14.6l11.3-14.6h14l-18.7,23.2l18.5,23.2h-14.6
		l-10.9-14.3l-10.7,14.3H721.2z"/>
	<path id="path3068" class="st6" d="M773.2,332v46.5h11.9v-14.7h12.2c10.3,0,18.2-5.5,18.2-16.2c0-8.9-6.2-15.6-16.7-15.6L773.2,332
		L773.2,332z M785.2,342.5H798c3.3,0,5.7,2.1,5.7,5.4c0,3.1-2.4,5.4-5.8,5.4h-12.8V342.5L785.2,342.5z"/>
	<path id="path3072" class="st6" d="M820.7,331.9v46.5h11.6v-16.5h4.9l13.9,16.5h14.2L850,361.3c6.3-0.5,12.7-5.9,12.7-14.3
		c0-9.8-7.7-15.1-16.2-15.1L820.7,331.9L820.7,331.9z M832.3,342.3h13.3c3.2,0,5.5,2.5,5.5,4.9c0,3.1-3,4.9-5.3,4.9h-13.5V342.3z"/>
	<path id="path3074" class="st6" d="M910.9,378.4v-10.1h23.2c3.5,0,4.9-1.9,4.9-3.9c0-1.9-1.5-3.9-4.9-3.9h-10.5
		c-9.1,0-14.2-5.6-14.2-13.9c0-7.5,4.6-14.6,18.2-14.6h22.6l-4.9,10.5h-19.6c-3.8,0-4.9,2-4.9,3.8c0,1.9,1.4,4.1,4.3,4.1h11
		c10.2,0,14.6,5.8,14.6,13.3c0,8.1-4.9,14.8-15.1,14.8L910.9,378.4L910.9,378.4z"/>
	<path id="path3076" class="st6" d="M953.6,378.4v-10.1h23.2c3.5,0,4.9-1.9,4.9-3.9c0-1.9-1.5-3.9-4.9-3.9h-10.5
		c-9.1,0-14.2-5.6-14.2-13.9c0-7.5,4.6-14.6,18.2-14.6h22.6l-4.9,10.5h-19.6c-3.8,0-4.9,2-4.9,3.8c0,1.9,1.4,4.1,4.3,4.1h11
		c10.2,0,14.6,5.8,14.6,13.3c0,8.1-4.9,14.8-15.1,14.8L953.6,378.4L953.6,378.4z"/>
</g>
</svg>
